<?xml version="1.0" standalone="no"?>
<!DOCTYPE svg PUBLIC "-//W3C//DTD SVG 20010904//EN"
 "http://www.w3.org/TR/2001/REC-SVG-20010904/DTD/svg10.dtd">
<svg version="1.0" xmlns="http://www.w3.org/2000/svg"
 width="400.000000pt" height="400.000000pt" viewBox="0 0 400.000000 400.000000"
 preserveAspectRatio="xMidYMid meet">
<metadata>
Created by potrace 1.11, written by Peter Selinger 2001-2013
</metadata>
<g transform="translate(0.000000,400.000000) scale(0.100000,-0.100000)"
fill="#000000" stroke="none">
<path d="M1540 2322 c0 -429 -4 -731 -10 -763 -33 -181 -164 -268 -337 -225
-39 9 -83 28 -103 44 -70 55 -120 198 -120 345 l0 57 -236 0 -237 0 6 -127
c14 -304 132 -504 359 -607 164 -75 177 -75 1183 -66 854 7 882 8 965 29 254
65 433 232 480 451 19 86 9 272 -18 341 -49 124 -137 212 -262 261 -33 12 -60
25 -60 28 0 3 25 18 55 34 87 45 140 98 181 181 30 61 37 87 41 157 14 218
-91 394 -289 488 -156 74 -150 73 -915 77 l-683 4 0 -709z m1253 319 c43 -14
102 -62 122 -100 34 -67 26 -183 -17 -244 -12 -16 -46 -41 -77 -56 -54 -25
-64 -26 -268 -29 l-213 -4 0 227 0 227 208 -5 c115 -2 224 -10 245 -16z m60
-802 c164 -56 213 -284 87 -409 -65 -65 -89 -70 -364 -70 l-236 0 0 251 0 251
238 -5 c159 -3 250 -9 275 -18z"/>
<path d="M997 3 c552 -2 1454 -2 2006 0 551 1 100 2 -1003 2 -1103 0 -1554 -1
-1003 -2z"/>
</g>
</svg>
